<svg width="20" height="20" viewBox="0 0 20 20" fill="none" xmlns="http://www.w3.org/2000/svg">
<g clip-path="url(#clip0)">
<path d="M9.144 18.4036H2.35962C2.10755 18.4036 1.87786 18.2868 1.72935 18.083C1.58079 17.8792 1.53989 17.6246 1.61708 17.3845C2.38786 14.9881 4.73849 13.3145 7.33333 13.3145C8.54071 13.3145 9.70017 13.6781 10.6864 14.3659C11.0396 14.6123 11.5256 14.5257 11.7721 14.1724C12.0184 13.8192 11.9318 13.3331 11.5786 13.0867C11.0904 12.7462 10.5688 12.4684 10.0233 12.2564C10.7492 11.5964 11.2307 10.6722 11.3144 9.6373C12.4151 8.56512 13.8578 7.97762 15.4044 7.97762C16.6118 7.97762 17.7712 8.34121 18.7574 9.02902C19.1107 9.27539 19.5967 9.18879 19.8432 8.83555C20.0895 8.4823 20.0029 7.99625 19.6497 7.74984C19.1615 7.40934 18.6399 7.13156 18.0943 6.91949C18.8951 6.19145 19.3984 5.14191 19.3984 3.97699C19.3985 1.7841 17.6144 0 15.4215 0C13.2285 0 11.4444 1.7841 11.4444 3.97707C11.4444 5.13727 11.9438 6.18305 12.7389 6.91074C12.6301 6.95262 12.5221 6.99715 12.4149 7.04434C11.9269 7.25906 11.468 7.52266 11.0414 7.83273C10.4528 6.37121 9.02005 5.33691 7.35036 5.33691C5.15739 5.33691 3.37333 7.12102 3.37333 9.31398C3.37333 10.4708 3.86982 11.5138 4.66083 12.2413C2.54568 13.0339 0.830636 14.7362 0.132433 16.907C-0.0991299 17.627 0.0235263 18.3905 0.468995 19.0017C0.914386 19.6128 1.60345 19.9633 2.35966 19.9633H9.14404C9.57474 19.9633 9.92384 19.6142 9.92384 19.1835C9.92384 18.7529 9.57466 18.4036 9.144 18.4036ZM15.4215 1.55961C16.7545 1.55961 17.8389 2.64406 17.8389 3.97703C17.8389 5.31 16.7545 6.39445 15.4215 6.39445C14.0885 6.39445 13.0041 5.31 13.0041 3.97703C13.0041 2.64406 14.0885 1.55961 15.4215 1.55961ZM7.3504 6.89648C8.68337 6.89648 9.76782 7.98094 9.76782 9.31391C9.76782 10.6469 8.68337 11.7313 7.3504 11.7313C6.01743 11.7313 4.93298 10.6469 4.93298 9.31391C4.93298 7.98094 6.01743 6.89648 7.3504 6.89648Z" fill="black"/>
<path d="M19.6569 12.7376C19.3067 12.4869 18.8196 12.5675 18.5689 12.9177L14.7252 18.2868C14.6202 18.4085 14.4886 18.4348 14.4182 18.4394C14.3456 18.4444 14.2048 18.435 14.084 18.32L11.5956 15.9307C11.2849 15.6323 10.7912 15.6424 10.493 15.953C10.1947 16.2637 10.2047 16.7573 10.5154 17.0556L13.0063 19.4473C13.3793 19.8025 13.8773 20 14.3896 20C14.4336 20 14.4778 19.9986 14.5219 19.9956C15.08 19.9584 15.6011 19.687 15.9516 19.251C15.9607 19.2397 15.9693 19.2282 15.9778 19.2164L19.8372 13.8256C20.0878 13.4754 20.0072 12.9883 19.6569 12.7376Z" fill="black"/>
</g>
<defs>
<clipPath id="clip0">
<rect width="20" height="20" fill="white"/>
</clipPath>
</defs>
</svg>
