<svg width="218" height="37" viewBox="0 0 218 37" fill="none" xmlns="http://www.w3.org/2000/svg">
<path d="M0 36.0234V1.89844H12.2578C16.6484 1.89844 19.9844 2.70312 22.2656 4.3125C24.5625 5.92188 25.7109 8.25781 25.7109 11.3203C25.7109 13.0859 25.3047 14.5938 24.4922 15.8438C23.6797 17.0938 22.4844 18.0156 20.9062 18.6094C22.6875 19.0781 24.0547 19.9531 25.0078 21.2344C25.9609 22.5156 26.4375 24.0781 26.4375 25.9219C26.4375 29.2656 25.375 31.7812 23.25 33.4688C21.1406 35.1406 18.0078 35.9922 13.8516 36.0234H0ZM8.22656 21.5156V29.6953H13.6172C15.1016 29.6953 16.2422 29.3594 17.0391 28.6875C17.8359 28 18.2344 27.0391 18.2344 25.8047C18.2344 22.9609 16.8203 21.5312 13.9922 21.5156H8.22656ZM8.22656 16.125H12.5156C14.3125 16.1094 15.5938 15.7812 16.3594 15.1406C17.125 14.5 17.5078 13.5547 17.5078 12.3047C17.5078 10.8672 17.0938 9.83594 16.2656 9.21094C15.4375 8.57031 14.1016 8.25 12.2578 8.25H8.22656V16.125Z" fill="url(#paint0_linear)"/>
<path d="M36.5531 36.0234H28.6313V0.0234375H36.5531V36.0234Z" fill="url(#paint1_linear)"/>
<path d="M47.3719 36.0234H39.45V10.6641H47.3719V36.0234ZM38.9813 4.125C38.9813 3 39.3875 2.07812 40.2 1.35938C41.0125 0.640625 42.0672 0.28125 43.3641 0.28125C44.6609 0.28125 45.7156 0.640625 46.5281 1.35938C47.3406 2.07812 47.7469 3 47.7469 4.125C47.7469 5.25 47.3406 6.17188 46.5281 6.89062C45.7156 7.60938 44.6609 7.96875 43.3641 7.96875C42.0672 7.96875 41.0125 7.60938 40.2 6.89062C39.3875 6.17188 38.9813 5.25 38.9813 4.125Z" fill="url(#paint2_linear)"/>
<path d="M57.1125 10.6641L57.3703 13.6406C59.1203 11.3438 61.5344 10.1953 64.6125 10.1953C67.2531 10.1953 69.2219 10.9844 70.5188 12.5625C71.8313 14.1406 72.5109 16.5156 72.5578 19.6875V36.0234H64.6359V20.0156C64.6359 18.7344 64.3781 17.7969 63.8625 17.2031C63.3469 16.5938 62.4094 16.2891 61.05 16.2891C59.5031 16.2891 58.3547 16.8984 57.6047 18.1172V36.0234H49.7062V10.6641H57.1125Z" fill="url(#paint3_linear)"/>
<path d="M84.7359 26.5781L82.5094 28.8047V36.0234H74.6109V0H82.5094V19.125L83.3063 18.0703L89.2594 10.6641H98.7281L89.8453 21.0938L99.3141 36.0234H90.2672L84.7359 26.5781Z" fill="url(#paint4_linear)"/>
<path d="M106.992 29.6953H121.312V36.0234H98.7656V1.89844H106.992V29.6953Z" fill="url(#paint5_linear)"/>
<path d="M130.35 36.0234H122.428V10.6641H130.35V36.0234ZM121.959 4.125C121.959 3 122.366 2.07812 123.178 1.35938C123.991 0.640625 125.045 0.28125 126.342 0.28125C127.639 0.28125 128.694 0.640625 129.506 1.35938C130.319 2.07812 130.725 3 130.725 4.125C130.725 5.25 130.319 6.17188 129.506 6.89062C128.694 7.60938 127.639 7.96875 126.342 7.96875C125.045 7.96875 123.991 7.60938 123.178 6.89062C122.366 6.17188 121.959 5.25 121.959 4.125Z" fill="url(#paint6_linear)"/>
<path d="M140.091 10.6641L140.348 13.6406C142.098 11.3438 144.512 10.1953 147.591 10.1953C150.231 10.1953 152.2 10.9844 153.497 12.5625C154.809 14.1406 155.489 16.5156 155.536 19.6875V36.0234H147.614V20.0156C147.614 18.7344 147.356 17.7969 146.841 17.2031C146.325 16.5938 145.387 16.2891 144.028 16.2891C142.481 16.2891 141.333 16.8984 140.583 18.1172V36.0234H132.684V10.6641H140.091Z" fill="url(#paint7_linear)"/>
<path d="M167.714 26.5781L165.488 28.8047V36.0234H157.589V0H165.488V19.125L166.284 18.0703L172.238 10.6641H181.706L172.823 21.0938L182.292 36.0234H173.245L167.714 26.5781Z" fill="url(#paint8_linear)"/>
<g clip-path="url(#clip0)">
<path d="M216.38 19.3568C215.805 19.3568 215.339 18.8911 215.339 18.3151V14.1484C215.339 13.5734 214.871 13.1068 214.297 13.1068H210.13C209.555 13.1068 209.089 12.6411 209.089 12.0651C209.089 11.4891 209.555 11.0234 210.13 11.0234H214.297C216.02 11.0234 217.422 12.4255 217.422 14.1484V18.3151C217.422 18.8911 216.955 19.3568 216.38 19.3568Z" fill="url(#paint9_linear)"/>
<path d="M214.297 36.0234H210.13C209.555 36.0234 209.089 35.5578 209.089 34.9818C209.089 34.4057 209.555 33.9401 210.13 33.9401H214.297C214.871 33.9401 215.339 33.4734 215.339 32.8984V28.7317C215.339 28.1557 215.805 27.6901 216.38 27.6901C216.955 27.6901 217.422 28.1557 217.422 28.7317V32.8984C217.422 34.6213 216.02 36.0234 214.297 36.0234Z" fill="url(#paint10_linear)"/>
<path d="M199.714 36.0234H195.547C193.824 36.0234 192.422 34.6213 192.422 32.8984V28.7317C192.422 28.1557 192.889 27.6901 193.464 27.6901C194.039 27.6901 194.505 28.1557 194.505 28.7317V32.8984C194.505 33.4734 194.973 33.9401 195.547 33.9401H199.714C200.289 33.9401 200.755 34.4057 200.755 34.9818C200.755 35.5578 200.289 36.0234 199.714 36.0234Z" fill="url(#paint11_linear)"/>
<path d="M193.464 19.3568C192.889 19.3568 192.422 18.8911 192.422 18.3151V14.1484C192.422 12.4255 193.824 11.0234 195.547 11.0234H199.714C200.289 11.0234 200.755 11.4891 200.755 12.0651C200.755 12.6411 200.289 13.1068 199.714 13.1068H195.547C194.973 13.1068 194.505 13.5734 194.505 14.1484V18.3151C194.505 18.8911 194.039 19.3568 193.464 19.3568Z" fill="url(#paint12_linear)"/>
<path d="M211.172 22.4818C210.597 22.4818 210.13 22.0162 210.13 21.4401V18.3151H199.714V21.4401C199.714 22.0162 199.247 22.4818 198.672 22.4818C198.097 22.4818 197.63 22.0162 197.63 21.4401V18.3151C197.63 17.1662 198.565 16.2318 199.714 16.2318H210.13C211.279 16.2318 212.214 17.1662 212.214 18.3151V21.4401C212.214 22.0162 211.747 22.4818 211.172 22.4818Z" fill="url(#paint13_linear)"/>
<path d="M214.297 25.6067C214.297 26.1828 213.83 26.6484 213.255 26.6484H212.214V28.7317C212.214 29.8807 211.279 30.8151 210.13 30.8151H199.714C198.565 30.8151 197.63 29.8807 197.63 28.7317V26.6484H196.589C196.014 26.6484 195.547 26.1828 195.547 25.6067C195.547 25.0307 196.014 24.5651 196.589 24.5651H213.255C213.83 24.5651 214.297 25.0307 214.297 25.6067Z" fill="url(#paint14_linear)"/>
</g>
<defs>
<linearGradient id="paint0_linear" x1="91.1461" y1="0" x2="91.1461" y2="36.0234" gradientUnits="userSpaceOnUse">
<stop stop-color="#3B2565"/>
<stop offset="1" stop-color="#3B2565"/>
</linearGradient>
<linearGradient id="paint1_linear" x1="91.1461" y1="0" x2="91.1461" y2="36.0234" gradientUnits="userSpaceOnUse">
<stop stop-color="#3B2565"/>
<stop offset="1" stop-color="#3B2565"/>
</linearGradient>
<linearGradient id="paint2_linear" x1="91.1461" y1="0" x2="91.1461" y2="36.0234" gradientUnits="userSpaceOnUse">
<stop stop-color="#3B2565"/>
<stop offset="1" stop-color="#3B2565"/>
</linearGradient>
<linearGradient id="paint3_linear" x1="91.1461" y1="0" x2="91.1461" y2="36.0234" gradientUnits="userSpaceOnUse">
<stop stop-color="#3B2565"/>
<stop offset="1" stop-color="#3B2565"/>
</linearGradient>
<linearGradient id="paint4_linear" x1="91.1461" y1="0" x2="91.1461" y2="36.0234" gradientUnits="userSpaceOnUse">
<stop stop-color="#3B2565"/>
<stop offset="1" stop-color="#3B2565"/>
</linearGradient>
<linearGradient id="paint5_linear" x1="91.1461" y1="0" x2="91.1461" y2="36.0234" gradientUnits="userSpaceOnUse">
<stop stop-color="#3B2565"/>
<stop offset="1" stop-color="#3B2565"/>
</linearGradient>
<linearGradient id="paint6_linear" x1="91.1461" y1="0" x2="91.1461" y2="36.0234" gradientUnits="userSpaceOnUse">
<stop stop-color="#3B2565"/>
<stop offset="1" stop-color="#3B2565"/>
</linearGradient>
<linearGradient id="paint7_linear" x1="91.1461" y1="0" x2="91.1461" y2="36.0234" gradientUnits="userSpaceOnUse">
<stop stop-color="#3B2565"/>
<stop offset="1" stop-color="#3B2565"/>
</linearGradient>
<linearGradient id="paint8_linear" x1="91.1461" y1="0" x2="91.1461" y2="36.0234" gradientUnits="userSpaceOnUse">
<stop stop-color="#3B2565"/>
<stop offset="1" stop-color="#3B2565"/>
</linearGradient>
<linearGradient id="paint9_linear" x1="213.255" y1="11.0234" x2="213.255" y2="19.3568" gradientUnits="userSpaceOnUse">
<stop stop-color="#3B2565"/>
<stop offset="1" stop-color="#3B2565"/>
</linearGradient>
<linearGradient id="paint10_linear" x1="213.255" y1="27.6901" x2="213.255" y2="36.0234" gradientUnits="userSpaceOnUse">
<stop stop-color="#3B2565"/>
<stop offset="1" stop-color="#3B2565"/>
</linearGradient>
<linearGradient id="paint11_linear" x1="196.589" y1="27.6901" x2="196.589" y2="36.0234" gradientUnits="userSpaceOnUse">
<stop stop-color="#3B2565"/>
<stop offset="1" stop-color="#3B2565"/>
</linearGradient>
<linearGradient id="paint12_linear" x1="196.589" y1="11.0234" x2="196.589" y2="19.3568" gradientUnits="userSpaceOnUse">
<stop stop-color="#3B2565"/>
<stop offset="1" stop-color="#3B2565"/>
</linearGradient>
<linearGradient id="paint13_linear" x1="204.922" y1="16.2318" x2="204.922" y2="22.4818" gradientUnits="userSpaceOnUse">
<stop stop-color="#3B2565"/>
<stop offset="1" stop-color="#3B2565"/>
</linearGradient>
<linearGradient id="paint14_linear" x1="204.922" y1="24.5651" x2="204.922" y2="30.8151" gradientUnits="userSpaceOnUse">
<stop stop-color="#3B2565"/>
<stop offset="1" stop-color="#3B2565"/>
</linearGradient>
<clipPath id="clip0">
<rect width="25" height="25" fill="white" transform="translate(192.422 11.0234)"/>
</clipPath>
</defs>
</svg>
