<svg width="218" height="37" viewBox="0 0 218 37" fill="none" xmlns="http://www.w3.org/2000/svg">
<path d="M0.578125 37V2.875H12.8359C17.2266 2.875 20.5625 3.67969 22.8438 5.28906C25.1406 6.89844 26.2891 9.23438 26.2891 12.2969C26.2891 14.0625 25.8828 15.5703 25.0703 16.8203C24.2578 18.0703 23.0625 18.9922 21.4844 19.5859C23.2656 20.0547 24.6328 20.9297 25.5859 22.2109C26.5391 23.4922 27.0156 25.0547 27.0156 26.8984C27.0156 30.2422 25.9531 32.7578 23.8281 34.4453C21.7188 36.1172 18.5859 36.9688 14.4297 37H0.578125ZM8.80469 22.4922V30.6719H14.1953C15.6797 30.6719 16.8203 30.3359 17.6172 29.6641C18.4141 28.9766 18.8125 28.0156 18.8125 26.7812C18.8125 23.9375 17.3984 22.5078 14.5703 22.4922H8.80469ZM8.80469 17.1016H13.0938C14.8906 17.0859 16.1719 16.7578 16.9375 16.1172C17.7031 15.4766 18.0859 14.5312 18.0859 13.2812C18.0859 11.8438 17.6719 10.8125 16.8438 10.1875C16.0156 9.54688 14.6797 9.22656 12.8359 9.22656H8.80469V17.1016Z" fill="black"/>
<path d="M37.1312 37H29.2094V1H37.1312V37Z" fill="black"/>
<path d="M47.95 37H40.0281V11.6406H47.95V37ZM39.5594 5.10156C39.5594 3.97656 39.9656 3.05469 40.7781 2.33594C41.5906 1.61719 42.6453 1.25781 43.9422 1.25781C45.2391 1.25781 46.2938 1.61719 47.1063 2.33594C47.9188 3.05469 48.325 3.97656 48.325 5.10156C48.325 6.22656 47.9188 7.14844 47.1063 7.86719C46.2938 8.58594 45.2391 8.94531 43.9422 8.94531C42.6453 8.94531 41.5906 8.58594 40.7781 7.86719C39.9656 7.14844 39.5594 6.22656 39.5594 5.10156Z" fill="black"/>
<path d="M57.6906 11.6406L57.9484 14.6172C59.6984 12.3203 62.1125 11.1719 65.1906 11.1719C67.8313 11.1719 69.8 11.9609 71.0969 13.5391C72.4094 15.1172 73.0891 17.4922 73.1359 20.6641V37H65.2141V20.9922C65.2141 19.7109 64.9562 18.7734 64.4406 18.1797C63.925 17.5703 62.9875 17.2656 61.6281 17.2656C60.0812 17.2656 58.9328 17.875 58.1828 19.0938V37H50.2844V11.6406H57.6906Z" fill="black"/>
<path d="M85.3141 27.5547L83.0875 29.7812V37H75.1891V0.976562H83.0875V20.1016L83.8844 19.0469L89.8375 11.6406H99.3063L90.4234 22.0703L99.8922 37H90.8453L85.3141 27.5547Z" fill="black"/>
<path d="M107.57 30.6719H121.891V37H99.3438V2.875H107.57V30.6719Z" fill="black"/>
<path d="M130.928 37H123.006V11.6406H130.928V37ZM122.537 5.10156C122.537 3.97656 122.944 3.05469 123.756 2.33594C124.569 1.61719 125.623 1.25781 126.92 1.25781C128.217 1.25781 129.272 1.61719 130.084 2.33594C130.897 3.05469 131.303 3.97656 131.303 5.10156C131.303 6.22656 130.897 7.14844 130.084 7.86719C129.272 8.58594 128.217 8.94531 126.92 8.94531C125.623 8.94531 124.569 8.58594 123.756 7.86719C122.944 7.14844 122.537 6.22656 122.537 5.10156Z" fill="black"/>
<path d="M140.669 11.6406L140.927 14.6172C142.677 12.3203 145.091 11.1719 148.169 11.1719C150.809 11.1719 152.778 11.9609 154.075 13.5391C155.387 15.1172 156.067 17.4922 156.114 20.6641V37H148.192V20.9922C148.192 19.7109 147.934 18.7734 147.419 18.1797C146.903 17.5703 145.966 17.2656 144.606 17.2656C143.059 17.2656 141.911 17.875 141.161 19.0938V37H133.262V11.6406H140.669Z" fill="black"/>
<path d="M168.292 27.5547L166.066 29.7812V37H158.167V0.976562H166.066V20.1016L166.863 19.0469L172.816 11.6406H182.284L173.402 22.0703L182.87 37H173.823L168.292 27.5547Z" fill="black"/>
<g clip-path="url(#clip0)">
<path d="M216.958 20.3333C216.383 20.3333 215.917 19.8677 215.917 19.2917V15.125C215.917 14.55 215.449 14.0833 214.875 14.0833H210.708C210.133 14.0833 209.667 13.6177 209.667 13.0417C209.667 12.4656 210.133 12 210.708 12H214.875C216.598 12 218 13.4021 218 15.125V19.2917C218 19.8677 217.533 20.3333 216.958 20.3333Z" fill="black"/>
<path d="M214.875 37H210.708C210.133 37 209.667 36.5344 209.667 35.9583C209.667 35.3823 210.133 34.9166 210.708 34.9166H214.875C215.449 34.9166 215.917 34.45 215.917 33.875V29.7083C215.917 29.1323 216.383 28.6666 216.958 28.6666C217.533 28.6666 218 29.1323 218 29.7083V33.875C218 35.5979 216.598 37 214.875 37Z" fill="black"/>
<path d="M200.292 37H196.125C194.402 37 193 35.5979 193 33.875V29.7083C193 29.1323 193.467 28.6666 194.042 28.6666C194.617 28.6666 195.083 29.1323 195.083 29.7083V33.875C195.083 34.45 195.551 34.9166 196.125 34.9166H200.292C200.867 34.9166 201.333 35.3823 201.333 35.9583C201.333 36.5344 200.867 37 200.292 37Z" fill="black"/>
<path d="M194.042 20.3333C193.467 20.3333 193 19.8677 193 19.2917V15.125C193 13.4021 194.402 12 196.125 12H200.292C200.867 12 201.333 12.4656 201.333 13.0417C201.333 13.6177 200.867 14.0833 200.292 14.0833H196.125C195.551 14.0833 195.083 14.55 195.083 15.125V19.2917C195.083 19.8677 194.617 20.3333 194.042 20.3333Z" fill="black"/>
<path d="M211.75 23.4583C211.175 23.4583 210.708 22.9927 210.708 22.4167V19.2917H200.292V22.4167C200.292 22.9927 199.825 23.4583 199.25 23.4583C198.675 23.4583 198.208 22.9927 198.208 22.4167V19.2917C198.208 18.1427 199.143 17.2083 200.292 17.2083H210.708C211.857 17.2083 212.792 18.1427 212.792 19.2917V22.4167C212.792 22.9927 212.325 23.4583 211.75 23.4583Z" fill="black"/>
<path d="M214.875 26.5833C214.875 27.1593 214.408 27.625 213.833 27.625H212.792V29.7083C212.792 30.8573 211.857 31.7916 210.708 31.7916H200.292C199.143 31.7916 198.208 30.8573 198.208 29.7083V27.625H197.167C196.592 27.625 196.125 27.1593 196.125 26.5833C196.125 26.0073 196.592 25.5416 197.167 25.5416H213.833C214.408 25.5416 214.875 26.0073 214.875 26.5833Z" fill="black"/>
</g>
<defs>
<clipPath id="clip0">
<rect width="25" height="25" fill="white" transform="translate(193 12)"/>
</clipPath>
</defs>
</svg>
